HIERARCHY
ROOT Hips
{
	OFFSET 0.0000 0.0000 0.0000
	CHANNELS 6 Xposition Yposition Zposition Zrotation Xrotation Yrotation
	JOINT Ab
	{
		OFFSET -0.0000 8.1305 -0.0000
		CHANNELS 3 Zrotation Xrotation Yrotation
		JOINT Chest
		{
			OFFSET -0.0000 26.2902 -0.0000
			CHANNELS 3 Zrotation Xrotation Yrotation
			JOINT Neck
			{
				OFFSET -0.0000 26.2902 0.0000
				CHANNELS 3 Zrotation Xrotation Yrotation
				JOINT Head
				{
					OFFSET -0.0000 10.8167 0.0000
					CHANNELS 3 Zrotation Xrotation Yrotation
					End Site
					{
						OFFSET -0.0000 16.7167 0.0000
					}
				}
			}
			JOINT LeftCollar
			{
				OFFSET -0.0000 26.2902 0.0000
				CHANNELS 3 Zrotation Xrotation Yrotation
				JOINT LeftShoulder
				{
					OFFSET 19.6667 -0.0000 0.0000
					CHANNELS 3 Zrotation Xrotation Yrotation
					JOINT LeftElbow
					{
						OFFSET 27.2190 0.0000 0.0000
						CHANNELS 3 Zrotation Xrotation Yrotation
						JOINT LeftWrist
						{
							OFFSET 30.7431 0.0000 0.0000
							CHANNELS 3 Zrotation Xrotation Yrotation
							End Site
							{
								OFFSET 0.0000 -14.7500 0.0000
							}
						}
					}
				}
			}
			JOINT RightCollar
			{
				OFFSET -0.0000 26.2902 0.0000
				CHANNELS 3 Zrotation Xrotation Yrotation
				JOINT RightShoulder
				{
					OFFSET -19.6667 0.0000 0.0000
					CHANNELS 3 Zrotation Xrotation Yrotation
					JOINT RightElbow
					{
						OFFSET -27.2190 0.0000 0.0000
						CHANNELS 3 Zrotation Xrotation Yrotation
						JOINT RightWrist
						{
							OFFSET -30.7431 0.0000 0.0000
							CHANNELS 3 Zrotation Xrotation Yrotation
							End Site
							{
								OFFSET -0.0000 -14.7500 0.0000
							}
						}
					}
				}
			}
		}
	}
	JOINT LeftHip
	{
		OFFSET 11.8000 0.0000 0.0000
		CHANNELS 3 Zrotation Xrotation Yrotation
		JOINT LeftKnee
		{
			OFFSET -0.0000 -39.7832 0.0000
			CHANNELS 3 Zrotation Xrotation Yrotation
			JOINT LeftAnkle
			{
				OFFSET -0.0000 -41.7317 0.0000
				CHANNELS 3 Zrotation Xrotation Yrotation
				End Site
				{
					OFFSET -0.0000 -4.9167 16.7167
				}
			}
		}
	}
	JOINT RightHip
	{
		OFFSET -11.8000 0.0000 0.0000
		CHANNELS 3 Zrotation Xrotation Yrotation
		JOINT RightKnee
		{
			OFFSET -0.0000 -39.7832 0.0000
			CHANNELS 3 Zrotation Xrotation Yrotation
			JOINT RightAnkle
			{
				OFFSET -0.0000 -41.7317 0.0000
				CHANNELS 3 Zrotation Xrotation Yrotation
				End Site
				{
					OFFSET -0.0000 -4.9167 16.7167
				}
			}
		}
	}
}
MOTION
Frames: 9
Frame Time: 0.010000
-18.4271 97.0918 176.8769 358.7241 357.6078 181.5953 357.8646 348.0348 0.0029 2.9087 10.2254 359.9652 359.2102 357.6967 0.5674 355.9806 4.6941 0.7402 339.7754 357.4003 14.5036 315.7880 57.1245 342.5711 9.8843 357.0509 326.8930 87.8123 358.1211 346.4629 27.6283 355.8234 343.1248 46.3068 43.7888 2.6703 339.9839 354.4705 30.5226 270.6173 355.0300 10.2560 356.6424 3.7148 359.0102 357.7198 5.6910 5.3478 353.8708 351.8987 14.1541 359.0146 6.8138 12.2568 5.7292 4.9230 9.9025 349.8898 343.8780 312.4648 
-18.4420 97.0902 176.8585 358.7203 357.5912 181.5889 357.8628 348.0258 0.0035 2.9114 10.2406 359.9615 359.2120 357.6948 0.5616 355.9719 4.6912 0.7441 339.7720 357.3929 14.5058 315.8189 57.1451 342.5271 9.9139 357.0662 326.9162 87.9779 358.0806 346.6044 27.6268 355.8308 343.1199 46.2919 43.8153 2.7091 339.9100 354.4757 30.5248 270.8700 354.9210 9.8225 356.6302 3.7166 359.0013 357.7146 5.6769 5.3814 353.8778 351.9066 14.1426 358.9991 6.8045 12.2752 5.7337 4.9270 9.8569 349.8495 343.8939 312.4946 
-18.4561 97.0885 176.8429 358.7178 357.5701 181.5840 357.8660 348.0210 359.9986 2.9042 10.2432 359.9591 359.2112 357.7014 0.5682 355.9723 4.6818 0.7465 339.7772 357.3952 14.5095 315.8303 57.1488 342.5039 9.8944 357.0549 326.9348 88.0674 358.0676 346.6140 27.6307 355.8262 343.1329 46.3003 43.8207 2.6908 339.8802 354.4686 30.5462 271.0125 354.8847 9.5676 356.6183 3.7067 358.9948 357.7149 5.6777 5.3683 353.9133 351.9066 14.1640 358.9879 6.7824 12.2582 5.7343 4.9488 9.8666 349.8613 343.8806 312.5175 
-18.4713 97.0872 176.8256 358.7188 357.5530 181.5846 357.8646 348.0151 359.9959 2.9087 10.2496 359.9550 359.2363 357.7108 0.5697 355.9324 4.6798 0.7543 339.7764 357.4164 14.5061 315.8496 57.1568 342.4785 9.8712 357.0650 326.9356 88.1111 358.0627 346.6630 27.6389 355.8250 343.1320 46.2785 43.8414 2.7060 339.8662 354.4502 30.5405 271.0263 354.8903 9.5549 356.6129 3.7043 358.9754 357.7059 5.6732 5.3711 353.8995 351.9014 14.1952 358.9792 6.7748 12.2672 5.7363 4.9521 9.8444 349.8562 343.8906 312.5683 
-18.4849 97.0828 176.8069 358.7229 357.5445 181.5797 357.8650 348.0269 359.9975 2.9189 10.2464 359.9508 359.2365 357.7152 0.5740 355.9278 4.6783 0.7577 339.7833 357.4040 14.4909 315.7734 57.1525 342.5468 9.9267 357.0313 326.9261 88.0662 358.0669 346.6237 27.6421 355.8167 343.1345 46.2790 43.8612 2.6930 339.8587 354.4501 30.5466 270.9831 354.9050 9.5036 356.6092 3.7102 358.9810 357.7054 5.6706 5.3593 353.9211 351.8979 14.2084 358.9733 6.7718 12.2613 5.7415 4.9646 9.8498 349.8305 343.8854 312.5416 
-18.5001 97.0795 176.7896 358.7266 357.5274 181.5776 357.8621 348.0254 359.9971 2.9311 10.2527 359.9478 359.2435 357.6973 0.5753 355.9186 4.7070 0.7564 339.7804 357.4043 14.4830 315.7604 57.1398 342.5657 9.9134 357.0419 326.9104 88.0230 358.0604 346.5818 27.6507 355.8300 343.1364 46.2638 43.8413 2.6917 339.9005 354.4751 30.5589 270.9442 354.9093 9.5486 356.6035 3.6999 358.9925 357.7077 5.6796 5.3462 353.8931 351.8666 14.1753 358.9651 6.7539 12.2200 5.7493 4.9897 9.8843 349.7740 343.8868 312.5009 
-18.5180 97.0762 176.7731 358.7206 357.5134 181.5760 357.8580 348.0371 359.9925 2.9273 10.2381 359.9474 359.2367 357.7196 0.5771 355.9533 4.6982 0.7543 339.7806 357.4062 14.4699 315.7457 57.1403 342.5892 9.9153 357.0391 326.9107 88.0057 358.0467 346.5488 27.6584 355.8114 343.1363 46.2639 43.8698 2.6891 339.8744 354.4343 30.5425 270.9606 354.9369 9.5401 356.5839 3.6945 358.9842 357.7093 5.6845 5.3653 353.9449 351.8714 14.1812 358.9429 6.7492 12.2295 5.7564 4.9910 9.8899 349.5532 344.0294 312.4832 
-18.5352 97.0724 176.7567 358.7251 357.4938 181.5758 357.8627 348.0390 359.9924 2.9275 10.2375 359.9443 359.2410 357.7195 0.5746 355.9599 4.7004 0.7516 339.7676 357.4113 14.4629 315.7927 57.1419 342.5679 9.8932 357.0460 326.9115 87.9658 358.0377 346.5172 27.6634 355.8207 343.1436 46.2677 43.8561 2.6740 339.8840 354.4591 30.5563 270.9732 354.9388 9.5377 356.5782 3.6812 358.9933 357.7097 5.6955 5.3339 353.9105 351.8424 14.1807 358.9330 6.7329 12.2039 5.7631 5.0040 9.8880 349.6529 343.9520 312.5082 
-18.5527 97.0680 176.7405 358.7302 357.4735 181.5729 357.8740 348.0385 359.9931 2.9198 10.2405 359.9389 359.2515 357.7243 0.5656 355.9598 4.6934 0.7535 339.7712 357.4013 14.4819 315.8722 57.1861 342.4640 9.9492 357.0466 326.9513 87.9335 358.0104 346.5496 27.6714 355.8350 343.1413 46.2550 43.8609 2.6761 339.8836 354.4496 30.6067 271.2985 354.8074 8.9851 356.5735 3.6698 358.9936 357.7061 5.7026 5.3081 353.9074 351.8240 14.2050 358.9237 6.7215 12.2044 5.7696 5.0050 9.8776 349.8503 343.8099 312.5254 
